<?xml version="1.0"?>
<svg version="1.1" xmlns="http://www.w3.org/2000/svg" width="200" height="200" style=""><path fill="#121522" d="M42.4,101.5l0,47.9c0,17.4-5.2,26.6-22.8,26.6c-3.2,0-7.6-0.7-7.6-0.7l1.3-10.3l4.8,0c6,0,8.8-3.3,8.8-9.6l0-53.9l-7.5-3l0-8.5l30.5-0.5l0,9z M113.051,111l-2.5-8.6s-4.7-1.6-11.3-1.6c-10.7,0-16.7,7.8-16.7,24.5c0,16.2,6.3,23.2,17,23.2c5.2,0,11-1.8,11-1.8l0-12.6l-7.5-2.3l0-8.2l28.8-0.5l0,8.7l-6.8,2.3l0,20.4s-10.3,6.7-27.2,6.7c-20.3,0-32-12.2-32-35.4c0-23.5,13.2-37.5,33.7-37.5c12.1,0,23.3,4.7,23.3,4.7l-0.5,18l-9.3,0z"/><path fill="#" d=""/></svg>
