<svg id="wave" style="transform:rotate(0deg); transition: 0.3s" viewBox="0 0 1440 160" version="1.1" xmlns="http://www.w3.org/2000/svg"><defs><linearGradient id="sw-gradient-0" x1="0" x2="0" y1="1" y2="0"><stop stop-color="rgba(18, 21, 34, 1)" offset="0%"></stop><stop stop-color="rgba(18, 21, 34, 1)" offset="100%"></stop></linearGradient></defs><path style="transform:translate(0, 0px); opacity:1" fill="url(#sw-gradient-0)" d="M0,80L48,66.7C96,53,192,27,288,34.7C384,43,480,85,576,88C672,91,768,53,864,50.7C960,48,1056,80,1152,88C1248,96,1344,80,1440,72C1536,64,1632,64,1728,66.7C1824,69,1920,75,2016,69.3C2112,64,2208,48,2304,37.3C2400,27,2496,21,2592,34.7C2688,48,2784,80,2880,98.7C2976,117,3072,123,3168,122.7C3264,123,3360,117,3456,96C3552,75,3648,37,3744,21.3C3840,5,3936,11,4032,18.7C4128,27,4224,37,4320,34.7C4416,32,4512,16,4608,26.7C4704,37,4800,75,4896,85.3C4992,96,5088,80,5184,69.3C5280,59,5376,53,5472,42.7C5568,32,5664,16,5760,16C5856,16,5952,32,6048,40C6144,48,6240,48,6336,45.3C6432,43,6528,37,6624,32C6720,27,6816,21,6864,18.7L6912,16L6912,160L6864,160C6816,160,6720,160,6624,160C6528,160,6432,160,6336,160C6240,160,6144,160,6048,160C5952,160,5856,160,5760,160C5664,160,5568,160,5472,160C5376,160,5280,160,5184,160C5088,160,4992,160,4896,160C4800,160,4704,160,4608,160C4512,160,4416,160,4320,160C4224,160,4128,160,4032,160C3936,160,3840,160,3744,160C3648,160,3552,160,3456,160C3360,160,3264,160,3168,160C3072,160,2976,160,2880,160C2784,160,2688,160,2592,160C2496,160,2400,160,2304,160C2208,160,2112,160,2016,160C1920,160,1824,160,1728,160C1632,160,1536,160,1440,160C1344,160,1248,160,1152,160C1056,160,960,160,864,160C768,160,672,160,576,160C480,160,384,160,288,160C192,160,96,160,48,160L0,160Z"></path></svg>