<svg id="wave" style="transform:rotate(0deg); transition: 0.3s" viewBox="0 0 1440 150" version="1.1" xmlns="http://www.w3.org/2000/svg"><defs><linearGradient id="sw-gradient-0" x1="0" x2="0" y1="1" y2="0"><stop stop-color="rgba(18, 21, 34, 1)" offset="0%"></stop><stop stop-color="rgba(18, 21, 34, 1)" offset="100%"></stop></linearGradient></defs><path style="transform:translate(0, 0px); opacity:1" fill="url(#sw-gradient-0)" d="M0,60L30,70C60,80,120,100,180,105C240,110,300,100,360,87.5C420,75,480,60,540,67.5C600,75,660,105,720,105C780,105,840,75,900,70C960,65,1020,85,1080,97.5C1140,110,1200,115,1260,115C1320,115,1380,110,1440,92.5C1500,75,1560,45,1620,50C1680,55,1740,95,1800,97.5C1860,100,1920,65,1980,65C2040,65,2100,100,2160,110C2220,120,2280,105,2340,90C2400,75,2460,60,2520,55C2580,50,2640,55,2700,52.5C2760,50,2820,40,2880,42.5C2940,45,3000,60,3060,62.5C3120,65,3180,55,3240,50C3300,45,3360,45,3420,47.5C3480,50,3540,55,3600,62.5C3660,70,3720,80,3780,92.5C3840,105,3900,120,3960,112.5C4020,105,4080,75,4140,57.5C4200,40,4260,35,4290,32.5L4320,30L4320,150L4290,150C4260,150,4200,150,4140,150C4080,150,4020,150,3960,150C3900,150,3840,150,3780,150C3720,150,3660,150,3600,150C3540,150,3480,150,3420,150C3360,150,3300,150,3240,150C3180,150,3120,150,3060,150C3000,150,2940,150,2880,150C2820,150,2760,150,2700,150C2640,150,2580,150,2520,150C2460,150,2400,150,2340,150C2280,150,2220,150,2160,150C2100,150,2040,150,1980,150C1920,150,1860,150,1800,150C1740,150,1680,150,1620,150C1560,150,1500,150,1440,150C1380,150,1320,150,1260,150C1200,150,1140,150,1080,150C1020,150,960,150,900,150C840,150,780,150,720,150C660,150,600,150,540,150C480,150,420,150,360,150C300,150,240,150,180,150C120,150,60,150,30,150L0,150Z"></path><defs><linearGradient id="sw-gradient-1" x1="0" x2="0" y1="1" y2="0"><stop stop-color="rgba(18, 21, 34, 1)" offset="0%"></stop><stop stop-color="rgba(18, 21, 34, 1)" offset="100%"></stop></linearGradient></defs><path style="transform:translate(0, 50px); opacity:0.9" fill="url(#sw-gradient-1)" d="M0,0L30,17.5C60,35,120,70,180,87.5C240,105,300,105,360,87.5C420,70,480,35,540,20C600,5,660,10,720,20C780,30,840,45,900,50C960,55,1020,50,1080,50C1140,50,1200,55,1260,65C1320,75,1380,90,1440,80C1500,70,1560,35,1620,22.5C1680,10,1740,20,1800,42.5C1860,65,1920,100,1980,100C2040,100,2100,65,2160,62.5C2220,60,2280,90,2340,100C2400,110,2460,100,2520,102.5C2580,105,2640,120,2700,115C2760,110,2820,85,2880,65C2940,45,3000,30,3060,25C3120,20,3180,25,3240,45C3300,65,3360,100,3420,110C3480,120,3540,105,3600,95C3660,85,3720,80,3780,65C3840,50,3900,25,3960,32.5C4020,40,4080,80,4140,82.5C4200,85,4260,50,4290,32.5L4320,15L4320,150L4290,150C4260,150,4200,150,4140,150C4080,150,4020,150,3960,150C3900,150,3840,150,3780,150C3720,150,3660,150,3600,150C3540,150,3480,150,3420,150C3360,150,3300,150,3240,150C3180,150,3120,150,3060,150C3000,150,2940,150,2880,150C2820,150,2760,150,2700,150C2640,150,2580,150,2520,150C2460,150,2400,150,2340,150C2280,150,2220,150,2160,150C2100,150,2040,150,1980,150C1920,150,1860,150,1800,150C1740,150,1680,150,1620,150C1560,150,1500,150,1440,150C1380,150,1320,150,1260,150C1200,150,1140,150,1080,150C1020,150,960,150,900,150C840,150,780,150,720,150C660,150,600,150,540,150C480,150,420,150,360,150C300,150,240,150,180,150C120,150,60,150,30,150L0,150Z"></path><defs><linearGradient id="sw-gradient-2" x1="0" x2="0" y1="1" y2="0"><stop stop-color="rgba(18, 21, 34, 1)" offset="0%"></stop><stop stop-color="rgba(18, 21, 34, 1)" offset="100%"></stop></linearGradient></defs><path style="transform:translate(0, 100px); opacity:0.8" fill="url(#sw-gradient-2)" d="M0,90L30,85C60,80,120,70,180,55C240,40,300,20,360,12.5C420,5,480,10,540,22.5C600,35,660,55,720,67.5C780,80,840,85,900,92.5C960,100,1020,110,1080,100C1140,90,1200,60,1260,62.5C1320,65,1380,100,1440,105C1500,110,1560,85,1620,65C1680,45,1740,30,1800,30C1860,30,1920,45,1980,52.5C2040,60,2100,60,2160,72.5C2220,85,2280,110,2340,102.5C2400,95,2460,55,2520,35C2580,15,2640,15,2700,30C2760,45,2820,75,2880,85C2940,95,3000,85,3060,75C3120,65,3180,55,3240,60C3300,65,3360,85,3420,92.5C3480,100,3540,95,3600,90C3660,85,3720,80,3780,75C3840,70,3900,65,3960,62.5C4020,60,4080,60,4140,67.5C4200,75,4260,90,4290,97.5L4320,105L4320,150L4290,150C4260,150,4200,150,4140,150C4080,150,4020,150,3960,150C3900,150,3840,150,3780,150C3720,150,3660,150,3600,150C3540,150,3480,150,3420,150C3360,150,3300,150,3240,150C3180,150,3120,150,3060,150C3000,150,2940,150,2880,150C2820,150,2760,150,2700,150C2640,150,2580,150,2520,150C2460,150,2400,150,2340,150C2280,150,2220,150,2160,150C2100,150,2040,150,1980,150C1920,150,1860,150,1800,150C1740,150,1680,150,1620,150C1560,150,1500,150,1440,150C1380,150,1320,150,1260,150C1200,150,1140,150,1080,150C1020,150,960,150,900,150C840,150,780,150,720,150C660,150,600,150,540,150C480,150,420,150,360,150C300,150,240,150,180,150C120,150,60,150,30,150L0,150Z"></path></svg>