<svg id="wave" style="transform:rotate(180deg); transition: 0.3s" viewBox="0 0 1440 330" version="1.1" xmlns="http://www.w3.org/2000/svg"><defs><linearGradient id="sw-gradient-0" x1="0" x2="0" y1="1" y2="0"><stop stop-color="rgba(18, 21, 34, 1)" offset="0%"></stop><stop stop-color="rgba(36, 40, 54, 1)" offset="100%"></stop></linearGradient></defs><path style="transform:translate(0, 0px); opacity:1" fill="url(#sw-gradient-0)" d="M0,66L48,66C96,66,192,66,288,99C384,132,480,198,576,214.5C672,231,768,198,864,187C960,176,1056,187,1152,159.5C1248,132,1344,66,1440,38.5C1536,11,1632,22,1728,44C1824,66,1920,99,2016,99C2112,99,2208,66,2304,60.5C2400,55,2496,77,2592,99C2688,121,2784,143,2880,137.5C2976,132,3072,99,3168,88C3264,77,3360,88,3456,126.5C3552,165,3648,231,3744,253C3840,275,3936,253,4032,253C4128,253,4224,275,4320,253C4416,231,4512,165,4608,143C4704,121,4800,143,4896,126.5C4992,110,5088,55,5184,27.5C5280,0,5376,0,5472,22C5568,44,5664,88,5760,115.5C5856,143,5952,154,6048,176C6144,198,6240,231,6336,253C6432,275,6528,286,6624,291.5C6720,297,6816,297,6864,297L6912,297L6912,330L6864,330C6816,330,6720,330,6624,330C6528,330,6432,330,6336,330C6240,330,6144,330,6048,330C5952,330,5856,330,5760,330C5664,330,5568,330,5472,330C5376,330,5280,330,5184,330C5088,330,4992,330,4896,330C4800,330,4704,330,4608,330C4512,330,4416,330,4320,330C4224,330,4128,330,4032,330C3936,330,3840,330,3744,330C3648,330,3552,330,3456,330C3360,330,3264,330,3168,330C3072,330,2976,330,2880,330C2784,330,2688,330,2592,330C2496,330,2400,330,2304,330C2208,330,2112,330,2016,330C1920,330,1824,330,1728,330C1632,330,1536,330,1440,330C1344,330,1248,330,1152,330C1056,330,960,330,864,330C768,330,672,330,576,330C480,330,384,330,288,330C192,330,96,330,48,330L0,330Z"></path><defs><linearGradient id="sw-gradient-1" x1="0" x2="0" y1="1" y2="0"><stop stop-color="rgba(18, 21, 34, 1)" offset="0%"></stop><stop stop-color="rgba(36, 40, 54, 1)" offset="100%"></stop></linearGradient></defs><path style="transform:translate(0, 50px); opacity:0.9" fill="url(#sw-gradient-1)" d="M0,231L48,209C96,187,192,143,288,132C384,121,480,143,576,126.5C672,110,768,55,864,33C960,11,1056,22,1152,27.5C1248,33,1344,33,1440,27.5C1536,22,1632,11,1728,55C1824,99,1920,198,2016,203.5C2112,209,2208,121,2304,77C2400,33,2496,33,2592,49.5C2688,66,2784,99,2880,115.5C2976,132,3072,132,3168,154C3264,176,3360,220,3456,236.5C3552,253,3648,242,3744,242C3840,242,3936,253,4032,242C4128,231,4224,198,4320,176C4416,154,4512,143,4608,121C4704,99,4800,66,4896,88C4992,110,5088,187,5184,231C5280,275,5376,286,5472,253C5568,220,5664,143,5760,104.5C5856,66,5952,66,6048,55C6144,44,6240,22,6336,60.5C6432,99,6528,198,6624,236.5C6720,275,6816,253,6864,242L6912,231L6912,330L6864,330C6816,330,6720,330,6624,330C6528,330,6432,330,6336,330C6240,330,6144,330,6048,330C5952,330,5856,330,5760,330C5664,330,5568,330,5472,330C5376,330,5280,330,5184,330C5088,330,4992,330,4896,330C4800,330,4704,330,4608,330C4512,330,4416,330,4320,330C4224,330,4128,330,4032,330C3936,330,3840,330,3744,330C3648,330,3552,330,3456,330C3360,330,3264,330,3168,330C3072,330,2976,330,2880,330C2784,330,2688,330,2592,330C2496,330,2400,330,2304,330C2208,330,2112,330,2016,330C1920,330,1824,330,1728,330C1632,330,1536,330,1440,330C1344,330,1248,330,1152,330C1056,330,960,330,864,330C768,330,672,330,576,330C480,330,384,330,288,330C192,330,96,330,48,330L0,330Z"></path><defs><linearGradient id="sw-gradient-2" x1="0" x2="0" y1="1" y2="0"><stop stop-color="rgba(36, 40, 54, 1)" offset="0%"></stop><stop stop-color="rgba(18, 21, 34, 1)" offset="100%"></stop></linearGradient></defs><path style="transform:translate(0, 100px); opacity:0.8" fill="url(#sw-gradient-2)" d="M0,297L48,280.5C96,264,192,231,288,220C384,209,480,220,576,236.5C672,253,768,275,864,275C960,275,1056,253,1152,231C1248,209,1344,187,1440,159.5C1536,132,1632,99,1728,104.5C1824,110,1920,154,2016,154C2112,154,2208,110,2304,77C2400,44,2496,22,2592,27.5C2688,33,2784,66,2880,66C2976,66,3072,33,3168,33C3264,33,3360,66,3456,110C3552,154,3648,209,3744,220C3840,231,3936,198,4032,176C4128,154,4224,143,4320,148.5C4416,154,4512,176,4608,192.5C4704,209,4800,220,4896,220C4992,220,5088,209,5184,192.5C5280,176,5376,154,5472,143C5568,132,5664,132,5760,132C5856,132,5952,132,6048,115.5C6144,99,6240,66,6336,60.5C6432,55,6528,77,6624,110C6720,143,6816,187,6864,209L6912,231L6912,330L6864,330C6816,330,6720,330,6624,330C6528,330,6432,330,6336,330C6240,330,6144,330,6048,330C5952,330,5856,330,5760,330C5664,330,5568,330,5472,330C5376,330,5280,330,5184,330C5088,330,4992,330,4896,330C4800,330,4704,330,4608,330C4512,330,4416,330,4320,330C4224,330,4128,330,4032,330C3936,330,3840,330,3744,330C3648,330,3552,330,3456,330C3360,330,3264,330,3168,330C3072,330,2976,330,2880,330C2784,330,2688,330,2592,330C2496,330,2400,330,2304,330C2208,330,2112,330,2016,330C1920,330,1824,330,1728,330C1632,330,1536,330,1440,330C1344,330,1248,330,1152,330C1056,330,960,330,864,330C768,330,672,330,576,330C480,330,384,330,288,330C192,330,96,330,48,330L0,330Z"></path><defs><linearGradient id="sw-gradient-3" x1="0" x2="0" y1="1" y2="0"><stop stop-color="rgba(36, 40, 54, 1)" offset="0%"></stop><stop stop-color="rgba(18, 21, 34, 1)" offset="100%"></stop></linearGradient></defs><path style="transform:translate(0, 150px); opacity:0.7" fill="url(#sw-gradient-3)" d="M0,198L48,198C96,198,192,198,288,203.5C384,209,480,220,576,192.5C672,165,768,99,864,60.5C960,22,1056,11,1152,38.5C1248,66,1344,132,1440,154C1536,176,1632,154,1728,159.5C1824,165,1920,198,2016,181.5C2112,165,2208,99,2304,110C2400,121,2496,209,2592,225.5C2688,242,2784,187,2880,176C2976,165,3072,198,3168,192.5C3264,187,3360,143,3456,154C3552,165,3648,231,3744,214.5C3840,198,3936,99,4032,82.5C4128,66,4224,132,4320,165C4416,198,4512,198,4608,203.5C4704,209,4800,220,4896,225.5C4992,231,5088,231,5184,236.5C5280,242,5376,253,5472,247.5C5568,242,5664,220,5760,203.5C5856,187,5952,176,6048,176C6144,176,6240,187,6336,187C6432,187,6528,176,6624,192.5C6720,209,6816,253,6864,275L6912,297L6912,330L6864,330C6816,330,6720,330,6624,330C6528,330,6432,330,6336,330C6240,330,6144,330,6048,330C5952,330,5856,330,5760,330C5664,330,5568,330,5472,330C5376,330,5280,330,5184,330C5088,330,4992,330,4896,330C4800,330,4704,330,4608,330C4512,330,4416,330,4320,330C4224,330,4128,330,4032,330C3936,330,3840,330,3744,330C3648,330,3552,330,3456,330C3360,330,3264,330,3168,330C3072,330,2976,330,2880,330C2784,330,2688,330,2592,330C2496,330,2400,330,2304,330C2208,330,2112,330,2016,330C1920,330,1824,330,1728,330C1632,330,1536,330,1440,330C1344,330,1248,330,1152,330C1056,330,960,330,864,330C768,330,672,330,576,330C480,330,384,330,288,330C192,330,96,330,48,330L0,330Z"></path></svg>


