<svg id="wave" style="transform:rotate(180deg); transition: 0.3s" viewBox="0 0 1440 300" version="1.1" xmlns="http://www.w3.org/2000/svg"><defs><linearGradient id="sw-gradient-0" x1="0" x2="0" y1="1" y2="0"><stop stop-color="rgba(18, 21, 34, 1)" offset="0%"></stop><stop stop-color="rgba(18, 21, 34, 1)" offset="100%"></stop></linearGradient></defs><path style="transform:translate(0, 0px); opacity:1" fill="url(#sw-gradient-0)" d="M0,180L48,165C96,150,192,120,288,135C384,150,480,210,576,205C672,200,768,130,864,100C960,70,1056,80,1152,90C1248,100,1344,110,1440,140C1536,170,1632,220,1728,215C1824,210,1920,150,2016,150C2112,150,2208,210,2304,200C2400,190,2496,110,2592,110C2688,110,2784,190,2880,215C2976,240,3072,210,3168,165C3264,120,3360,60,3456,60C3552,60,3648,120,3744,150C3840,180,3936,180,4032,155C4128,130,4224,80,4320,50C4416,20,4512,10,4608,50C4704,90,4800,180,4896,220C4992,260,5088,250,5184,210C5280,170,5376,100,5472,60C5568,20,5664,10,5760,50C5856,90,5952,180,6048,225C6144,270,6240,270,6336,270C6432,270,6528,270,6624,250C6720,230,6816,190,6864,170L6912,150L6912,300L6864,300C6816,300,6720,300,6624,300C6528,300,6432,300,6336,300C6240,300,6144,300,6048,300C5952,300,5856,300,5760,300C5664,300,5568,300,5472,300C5376,300,5280,300,5184,300C5088,300,4992,300,4896,300C4800,300,4704,300,4608,300C4512,300,4416,300,4320,300C4224,300,4128,300,4032,300C3936,300,3840,300,3744,300C3648,300,3552,300,3456,300C3360,300,3264,300,3168,300C3072,300,2976,300,2880,300C2784,300,2688,300,2592,300C2496,300,2400,300,2304,300C2208,300,2112,300,2016,300C1920,300,1824,300,1728,300C1632,300,1536,300,1440,300C1344,300,1248,300,1152,300C1056,300,960,300,864,300C768,300,672,300,576,300C480,300,384,300,288,300C192,300,96,300,48,300L0,300Z"></path><defs><linearGradient id="sw-gradient-1" x1="0" x2="0" y1="1" y2="0"><stop stop-color="rgba(18, 21, 34, 1)" offset="0%"></stop><stop stop-color="rgba(18, 21, 34, 1)" offset="100%"></stop></linearGradient></defs><path style="transform:translate(0, 50px); opacity:0.9" fill="url(#sw-gradient-1)" d="M0,30L48,70C96,110,192,190,288,220C384,250,480,230,576,215C672,200,768,190,864,155C960,120,1056,60,1152,40C1248,20,1344,40,1440,80C1536,120,1632,180,1728,190C1824,200,1920,160,2016,120C2112,80,2208,40,2304,50C2400,60,2496,120,2592,160C2688,200,2784,220,2880,230C2976,240,3072,240,3168,230C3264,220,3360,200,3456,195C3552,190,3648,200,3744,210C3840,220,3936,230,4032,240C4128,250,4224,260,4320,250C4416,240,4512,210,4608,200C4704,190,4800,200,4896,200C4992,200,5088,190,5184,165C5280,140,5376,100,5472,110C5568,120,5664,180,5760,180C5856,180,5952,120,6048,110C6144,100,6240,140,6336,135C6432,130,6528,80,6624,70C6720,60,6816,90,6864,105L6912,120L6912,300L6864,300C6816,300,6720,300,6624,300C6528,300,6432,300,6336,300C6240,300,6144,300,6048,300C5952,300,5856,300,5760,300C5664,300,5568,300,5472,300C5376,300,5280,300,5184,300C5088,300,4992,300,4896,300C4800,300,4704,300,4608,300C4512,300,4416,300,4320,300C4224,300,4128,300,4032,300C3936,300,3840,300,3744,300C3648,300,3552,300,3456,300C3360,300,3264,300,3168,300C3072,300,2976,300,2880,300C2784,300,2688,300,2592,300C2496,300,2400,300,2304,300C2208,300,2112,300,2016,300C1920,300,1824,300,1728,300C1632,300,1536,300,1440,300C1344,300,1248,300,1152,300C1056,300,960,300,864,300C768,300,672,300,576,300C480,300,384,300,288,300C192,300,96,300,48,300L0,300Z"></path><defs><linearGradient id="sw-gradient-2" x1="0" x2="0" y1="1" y2="0"><stop stop-color="rgba(18, 21, 34, 1)" offset="0%"></stop><stop stop-color="rgba(18, 21, 34, 1)" offset="100%"></stop></linearGradient></defs><path style="transform:translate(0, 100px); opacity:0.8" fill="url(#sw-gradient-2)" d="M0,30L48,40C96,50,192,70,288,105C384,140,480,190,576,210C672,230,768,220,864,200C960,180,1056,150,1152,155C1248,160,1344,200,1440,180C1536,160,1632,80,1728,50C1824,20,1920,40,2016,65C2112,90,2208,120,2304,130C2400,140,2496,130,2592,105C2688,80,2784,40,2880,30C2976,20,3072,40,3168,45C3264,50,3360,40,3456,75C3552,110,3648,190,3744,225C3840,260,3936,250,4032,240C4128,230,4224,220,4320,195C4416,170,4512,130,4608,115C4704,100,4800,110,4896,130C4992,150,5088,180,5184,170C5280,160,5376,110,5472,80C5568,50,5664,40,5760,35C5856,30,5952,30,6048,35C6144,40,6240,50,6336,90C6432,130,6528,200,6624,230C6720,260,6816,250,6864,245L6912,240L6912,300L6864,300C6816,300,6720,300,6624,300C6528,300,6432,300,6336,300C6240,300,6144,300,6048,300C5952,300,5856,300,5760,300C5664,300,5568,300,5472,300C5376,300,5280,300,5184,300C5088,300,4992,300,4896,300C4800,300,4704,300,4608,300C4512,300,4416,300,4320,300C4224,300,4128,300,4032,300C3936,300,3840,300,3744,300C3648,300,3552,300,3456,300C3360,300,3264,300,3168,300C3072,300,2976,300,2880,300C2784,300,2688,300,2592,300C2496,300,2400,300,2304,300C2208,300,2112,300,2016,300C1920,300,1824,300,1728,300C1632,300,1536,300,1440,300C1344,300,1248,300,1152,300C1056,300,960,300,864,300C768,300,672,300,576,300C480,300,384,300,288,300C192,300,96,300,48,300L0,300Z"></path></svg>